<svg width="36" height="36" viewBox="0 0 36 36" fill="none" xmlns="http://www.w3.org/2000/svg">
<circle cx="18" cy="18" r="16.5" fill="black" stroke="black" stroke-width="3"/>
<path d="M17.886 24.818C20.91 24.818 22.962 22.982 22.962 20.57C22.962 18.572 21.468 17.438 20.01 17.168C21.342 16.844 22.584 15.62 22.584 13.856C22.584 11.588 20.658 9.734 17.688 9.734C14.736 9.734 12.792 11.714 12.792 14.252H14.682C14.682 12.722 15.744 11.354 17.688 11.354C19.596 11.354 20.712 12.506 20.712 13.91C20.712 15.404 19.47 16.448 17.634 16.448H16.05V18.014H17.634C19.812 18.014 21.108 18.968 21.108 20.588C21.108 22.028 19.902 23.18 17.886 23.18C15.852 23.18 14.7 21.974 14.646 20.426H12.774C12.882 22.946 14.79 24.818 17.886 24.818Z" fill="white"/>
</svg>
