<svg width="30" height="30" viewBox="0 0 30 30" fill="none" xmlns="http://www.w3.org/2000/svg">
<circle cx="15" cy="15" r="14.5" fill="white" stroke="black"/>
<path d="M14.924 20.212C16.94 20.212 18.308 18.988 18.308 17.38C18.308 16.048 17.312 15.292 16.34 15.112C17.228 14.896 18.056 14.08 18.056 12.904C18.056 11.392 16.772 10.156 14.792 10.156C12.824 10.156 11.528 11.476 11.528 13.168H12.788C12.788 12.148 13.496 11.236 14.792 11.236C16.064 11.236 16.808 12.004 16.808 12.94C16.808 13.936 15.98 14.632 14.756 14.632H13.7V15.676H14.756C16.208 15.676 17.072 16.312 17.072 17.392C17.072 18.352 16.268 19.12 14.924 19.12C13.568 19.12 12.8 18.316 12.764 17.284H11.516C11.588 18.964 12.86 20.212 14.924 20.212Z" fill="black"/>
</svg>
